name C:\Users\antoi\Documents\MyRepositories\upper-imu-dc\Results\main_tracking\Case_99\kinematics.mot
datacolumns 43
datarows 11
range 1.70000000 1.90000000
endheader 
time	clav_prot	clav_elev	scapula_abduction	scapula_elevation	scapula_upward_rot	scapula_winging	plane_elv	shoulder_elv	axial_rot	TrapeziusScapula_M/activation	TrapeziusScapula_S/activation	TrapeziusScapula_I/activation	TrapeziusClavicle_S/activation	SerratusAnterior_I/activation	SerratusAnterior_M/activation	SerratusAnterior_S/activation	Rhomboideus_S/activation	Rhomboideus_I/activation	LevatorScapulae/activation	Coracobrachialis/activation	DeltoideusClavicle_A/activation	DeltoideusScapula_P/activation	DeltoideusScapula_M/activation	LatissimusDorsi_S/activation	LatissimusDorsi_M/activation	LatissimusDorsi_I/activation	PectoralisMajorClavicle_S/activation	PectoralisMajorThorax_I/activation	PectoralisMajorThorax_M/activation	TeresMajor/activation	Infraspinatus_I/activation	Infraspinatus_S/activation	PectoralisMinor/activation	TeresMinor/activation	Subscapularis_S/activation	Subscapularis_M/activation	Subscapularis_I/activation	Supraspinatus_P/activation	Supraspinatus_A/activation	TRIlong/activation	BIC_long/activation	BIC_brevis/activation	
          1.70000000	        -35.72106675	          0.44430733	        -27.09605614	         -4.58717735	         26.55180689	         -1.74821085	          3.65865377	          1.63713937	         55.85039176	          0.01000021	          0.02555169	          0.01000014	          0.01611539	          0.03119535	          0.04972061	          0.01000052	          0.01000023	          0.01000003	          0.01405114	          0.01000022	          0.02063593	          0.01000001	          0.05214183	          0.01000009	          0.01000002	          0.01000020	          0.01127556	          0.01000000	          0.01324808	          0.01000022	          0.02259518	          0.01667509	          0.01000000	          0.01016997	          0.01000041	          0.01000042	          0.01000036	          0.01000084	          0.01000069	          0.01000005	          0.01756602	          0.01000026	
          1.72000000	        -35.62695631	          0.42322274	        -26.98909762	         -4.58091752	         26.48210973	         -1.68979088	          3.44950346	          1.68134208	         55.70023931	          0.01000018	          0.02544369	          0.01000012	          0.01626853	          0.03022153	          0.04984855	          0.01000055	          0.01000028	          0.01000004	          0.01492922	          0.01000020	          0.01990460	          0.01000001	          0.05174920	          0.01000010	          0.01000002	          0.01000021	          0.01099211	          0.01000000	          0.01303886	          0.01000023	          0.02218324	          0.01648470	          0.01000000	          0.01010905	          0.01000042	          0.01000043	          0.01000038	          0.01000082	          0.01000065	          0.01000005	          0.01666820	          0.01000025	
          1.74000000	        -35.52469115	          0.41756762	        -26.88774242	         -4.55875592	         26.39266423	         -1.62928652	          3.22238076	          1.71914734	         55.56451204	          0.01000015	          0.02531504	          0.01000011	          0.01641857	          0.02922000	          0.04994160	          0.01000057	          0.01000030	          0.01000007	          0.01573258	          0.01000019	          0.01916033	          0.01000002	          0.05153737	          0.01000010	          0.01000003	          0.01000021	          0.01061389	          0.01000000	          0.01279114	          0.01000023	          0.02181062	          0.01629076	          0.01000000	          0.01008630	          0.01000043	          0.01000044	          0.01000039	          0.01000080	          0.01000048	          0.01000005	          0.01577142	          0.01000023	
          1.76000000	        -35.41743147	          0.42135092	        -26.79922910	         -4.52401342	         26.27733905	         -1.56434259	          2.97179645	          1.75650957	         55.44048218	          0.01000015	          0.02511275	          0.01000007	          0.01652992	          0.02827337	          0.04987705	          0.01000059	          0.01000051	          0.01000009	          0.01643671	          0.01000019	          0.01844021	          0.01000000	          0.05131361	          0.01000010	          0.01000002	          0.01000021	          0.01024258	          0.01000001	          0.01254286	          0.01000022	          0.02148309	          0.01609615	          0.01000000	          0.01009289	          0.01000043	          0.01000044	          0.01000039	          0.01000079	          0.01000047	          0.01000003	          0.01492872	          0.01000021	
          1.78000000	        -35.30823945	          0.42694826	        -26.73026247	         -4.48112512	         26.12977630	         -1.49191640	          2.69242270	          1.80043463	         55.32485285	          0.01000013	          0.02481453	          0.01000011	          0.01657238	          0.02732647	          0.04962124	          0.01000060	          0.01000019	          0.01000000	          0.01684850	          0.01000018	          0.01784499	          0.01000003	          0.05088955	          0.01000010	          0.01000003	          0.01000022	          0.01000017	          0.01000000	          0.01238725	          0.01000023	          0.02115593	          0.01587103	          0.01000000	          0.01008755	          0.01000044	          0.01000045	          0.01000043	          0.01000071	          0.01000066	          0.01000005	          0.01424368	          0.01000020	
          1.80000000	        -35.19953118	          0.42541607	        -26.68632580	         -4.43532986	         25.94323191	         -1.40817970	          2.38107501	          1.85832486	         55.21678409	          0.01000014	          0.02435180	          0.01000008	          0.01647354	          0.02647754	          0.04898524	          0.01000060	          0.01000054	          0.01000145	          0.01703299	          0.01000018	          0.01746035	          0.01000002	          0.04994079	          0.01000011	          0.01000003	          0.01000023	          0.01000183	          0.01000001	          0.01243686	          0.01000021	          0.02074412	          0.01557721	          0.01000001	          0.01006704	          0.01000044	          0.01000044	          0.01000040	          0.01000075	          0.01000078	          0.01000003	          0.01366457	          0.01000018	
          1.82000000	        -35.09228615	          0.40713500	        -26.67056791	         -4.39214289	         25.71062592	         -1.30849020	          2.03708645	          1.93709860	         55.11859358	          0.01000014	          0.02368136	          0.01000008	          0.01625324	          0.02567299	          0.04802140	          0.01000060	          0.01000045	          0.01000003	          0.01697563	          0.01000018	          0.01732541	          0.01000001	          0.04830579	          0.01000012	          0.01000004	          0.01000023	          0.01000040	          0.01000003	          0.01274059	          0.01000021	          0.02028870	          0.01517333	          0.01000002	          0.01002614	          0.01000044	          0.01000044	          0.01000041	          0.01000072	          0.01000077	          0.01000003	          0.01344273	          0.01000018	
          1.84000000	        -34.98573118	          0.36283999	        -26.68347903	         -4.35661177	         25.42472873	         -1.18768004	          1.66430605	          2.04251592	         55.03567251	          0.01000008	          0.02282551	          0.01000009	          0.01589776	          0.02495809	          0.04681474	          0.01000059	          0.01000039	          0.01000005	          0.01660888	          0.01000018	          0.01742396	          0.01000006	          0.04614850	          0.01000013	          0.01000005	          0.01000025	          0.01022323	          0.01000004	          0.01322693	          0.01000022	          0.01977577	          0.01468060	          0.01000003	          0.01000363	          0.01000044	          0.01000044	          0.01000040	          0.01000072	          0.01000093	          0.01000007	          0.01370157	          0.01000017	
          1.86000000	        -34.87777311	          0.28427732	        -26.72303665	         -4.33308990	         25.07923634	         -1.04067571	          1.26909559	          2.17837264	         54.97719894	          0.01000017	          0.02184741	          0.01000012	          0.01547960	          0.02451993	          0.04535399	          0.01000057	          0.01000046	          0.01000118	          0.01609017	          0.01000020	          0.01779005	          0.01000005	          0.04382284	          0.01000014	          0.01000006	          0.01000026	          0.01075151	          0.01000005	          0.01385043	          0.01000020	          0.01919409	          0.01417415	          0.01000003	          0.01000177	          0.01000044	          0.01000044	          0.01000042	          0.01000064	          0.01000072	          0.01000002	          0.01425157	          0.01000019	
          1.88000000	        -34.76569956	          0.16470850	        -26.78512199	         -4.32519411	         24.67003863	         -0.86319643	          0.85828540	          2.34651682	         54.95188093	          0.01000020	          0.02088843	          0.01000009	          0.01500364	          0.02454358	          0.04389373	          0.01000049	          0.01000044	          0.01000010	          0.01524287	          0.01000020	          0.01856798	          0.01000011	          0.04184599	          0.01000016	          0.01000007	          0.01000026	          0.01147836	          0.01000005	          0.01456788	          0.01000018	          0.01878693	          0.01380696	          0.01000003	          0.01000007	          0.01000041	          0.01000039	          0.01000029	          0.01000073	          0.01000152	          0.01000006	          0.01538196	          0.01000016	
          1.90000000	        -34.64805437	         -0.00135635	        -26.86529729	         -4.33652977	         24.19692101	         -0.65270192	          0.43752218	          2.54709385	         54.96319110	          0.01000017	          0.02006178	          0.01000015	          0.01449649	          0.02494594	          0.04256773	          0.01000050	          0.01000036	          0.01000010	          0.01428458	          0.01000021	          0.01941861	          0.01000012	          0.04087071	          0.01000017	          0.01000009	          0.01000027	          0.01205646	          0.01000005	          0.01502204	          0.01000021	          0.01859763	          0.01368939	          0.01000005	          0.01000000	          0.01000043	          0.01000042	          0.01000040	          0.01000063	          0.01000090	          0.01000009	          0.01676546	          0.01000020	
